<svg width="26" height="14" viewBox="0 0 26 14" fill="none" xmlns="http://www.w3.org/2000/svg">
<path fill-rule="evenodd" clip-rule="evenodd" d="M12.5993 6.3395C14.3389 6.3395 15.7492 4.92926 15.7492 3.18965C15.7492 1.45003 14.3389 0.0397949 12.5993 0.0397949C10.8597 0.0397949 9.44948 1.45003 9.44948 3.18965C9.44948 4.92926 10.8597 6.3395 12.5993 6.3395ZM23.099 3.71446C23.099 4.87421 22.1588 5.81437 20.9991 5.81437C19.8393 5.81437 18.8992 4.87421 18.8992 3.71446C18.8992 2.55472 19.8393 1.61456 20.9991 1.61456C22.1588 1.61456 23.099 2.55472 23.099 3.71446ZM5.24965 10.8018C5.24965 9.36332 5.94262 8.08238 7.00307 7.28442C6.57259 7.02193 6.05811 6.86444 5.51214 6.86444H2.88726C1.29133 6.86444 -0.000106812 8.15588 -0.000106812 9.75181V10.2768C-0.000106812 10.7073 0.356877 11.0642 0.787357 11.0642H5.24965V10.8018ZM5.09992 5.81437C6.25966 5.81437 7.19982 4.87421 7.19982 3.71446C7.19982 2.55472 6.25966 1.61456 5.09992 1.61456C3.94017 1.61456 3.00002 2.55472 3.00002 3.71446C3.00002 4.87421 3.94017 5.81437 5.09992 5.81437ZM25.1987 10.2768V9.75181C25.1987 8.15588 23.9073 6.86444 22.3114 6.86444H19.6865C19.1405 6.86444 18.6261 7.02193 18.1956 7.28442C19.256 8.08238 19.949 9.36332 19.949 10.8018V11.0642H24.4113C24.8418 11.0642 25.1987 10.7073 25.1987 10.2768ZM9.71191 7.91443H15.4866C17.0794 7.91443 18.374 9.20902 18.374 10.8018V12.3767C18.374 12.8114 18.0212 13.1642 17.5865 13.1642H7.612C7.17732 13.1642 6.82454 12.8114 6.82454 12.3767V10.8018C6.82454 9.20902 8.11913 7.91443 9.71191 7.91443Z" fill="#F5F5F5"/>
</svg>
