<svg width="22" height="20" viewBox="0 0 22 20" fill="none" xmlns="http://www.w3.org/2000/svg">
<path d="M10.8191 0.515471C10.8678 0.365691 11.0796 0.365691 11.1283 0.515471L13.4009 7.50991C13.4227 7.57689 13.4851 7.62224 13.5556 7.62224H20.9099C21.0674 7.62224 21.1329 7.82377 21.0055 7.91634L15.0557 12.2391C14.9987 12.2805 14.9749 12.3539 14.9966 12.4209L17.2693 19.4153C17.3179 19.5651 17.1465 19.6897 17.0191 19.5971L11.0693 15.2743C11.0123 15.2329 10.9351 15.2329 10.8781 15.2743L4.92832 19.5971C4.80091 19.6897 4.62948 19.5651 4.67815 19.4153L6.95078 12.4209C6.97254 12.3539 6.9487 12.2805 6.89172 12.2391L0.941896 7.91634C0.814485 7.82377 0.879966 7.62224 1.03745 7.62224H8.39184C8.46227 7.62224 8.52469 7.57689 8.54645 7.50991L10.8191 0.515471Z" fill="#F5F5F5"/>
</svg>
